<svg width="45" height="44" viewBox="0 0 45 44" fill="none" xmlns="http://www.w3.org/2000/svg">
<path d="M22.5 44C18.0499 44 13.6998 42.7097 9.99968 40.2923C6.29957 37.8749 3.41569 34.439 1.71272 30.419C0.00974889 26.3991 -0.435826 21.9756 0.432341 17.708C1.30051 13.4404 3.44343 9.52041 6.59011 6.44366C9.73679 3.3669 13.7459 1.27161 18.1105 0.422733C22.475 -0.426141 26.999 0.00953283 31.1104 1.67466C35.2217 3.33979 38.7357 6.15958 41.2081 9.77746C43.6804 13.3953 45 17.6488 45 22C44.9938 27.8329 42.6213 33.4252 38.4031 37.5497C34.1848 41.6741 28.4655 43.9939 22.5 44Z" fill="white"/>
</svg>
