<svg width="31" height="44" viewBox="0 0 31 44" fill="none" xmlns="http://www.w3.org/2000/svg">
<path d="M30.2116 38.367V44H1.57698V39.1591L15.4835 23.991C17.0092 22.2698 18.2121 20.7833 19.0922 19.5315C19.9724 18.2797 20.5885 17.155 20.9406 16.1575C21.3122 15.1405 21.498 14.1527 21.498 13.1943C21.498 11.8447 21.2437 10.6614 20.7352 9.64432C20.2462 8.60769 19.5225 7.79598 18.5641 7.20921C17.6057 6.60287 16.4419 6.29971 15.0728 6.29971C13.4885 6.29971 12.1585 6.64199 11.0827 7.32656C10.007 8.01113 9.19528 8.95975 8.64762 10.1724C8.09996 11.3655 7.82613 12.7347 7.82613 14.2798H0.755496C0.755496 11.7958 1.32271 9.52697 2.45714 7.47326C3.59157 5.39999 5.23454 3.75702 7.38605 2.54435C9.53756 1.31212 12.1292 0.696006 15.1608 0.696006C18.0165 0.696006 20.4418 1.17521 22.4368 2.1336C24.4319 3.092 25.9477 4.45137 26.9843 6.21169C28.0405 7.97202 28.5686 10.0551 28.5686 12.4608C28.5686 13.7909 28.3535 15.1111 27.9232 16.4216C27.4929 17.732 26.8768 19.0425 26.0748 20.353C25.2925 21.6439 24.3634 22.9446 23.2877 24.255C22.2119 25.5459 21.0286 26.8564 19.7377 28.1864L10.496 38.367H30.2116Z" fill="#EB242A"/>
</svg>
