<svg width="186" height="125" viewBox="0 0 186 125" fill="none" xmlns="http://www.w3.org/2000/svg">
<path d="M0 119.614C0 122.099 2.01472 124.114 4.5 124.114C6.98528 124.114 9 122.099 9 119.614H0ZM181.689 48.4426C184.086 47.7858 185.497 45.3103 184.84 42.9133L174.136 3.85335C173.48 1.45643 171.004 0.0458069 168.607 0.702631C166.21 1.35946 164.8 3.835 165.456 6.23192L174.971 40.9519L140.251 50.4662C137.854 51.123 136.443 53.5986 137.1 55.9955C137.757 58.3924 140.232 59.803 142.629 59.1462L181.689 48.4426ZM9 119.614C9 95.7918 25.0089 62.8086 54.3044 43.3267C83.1817 24.1228 125.343 17.8523 178.272 48.0124L182.728 40.1928C127.157 8.52714 81.3183 14.5537 49.3206 35.8326C17.7411 56.8335 0 92.5189 0 119.614H9Z" fill="#EB262C"/>
</svg>
