<svg width="134" height="100" viewBox="0 0 134 100" fill="none" xmlns="http://www.w3.org/2000/svg">
<path d="M133.5 95.1161C133.5 97.6014 131.485 99.6161 129 99.6161C126.515 99.6161 124.5 97.6014 124.5 95.1161H133.5ZM3.80439 48.837C1.40842 48.1768 0.00132751 45.6992 0.661575 43.3033L11.4209 4.25859C12.0812 1.86262 14.5587 0.45553 16.9547 1.11578C19.3507 1.77602 20.7577 4.25358 20.0975 6.64955L10.5337 41.3559L45.24 50.9198C47.636 51.58 49.0431 54.0576 48.3829 56.4536C47.7226 58.8495 45.245 60.2566 42.8491 59.5964L3.80439 48.837ZM124.5 95.1161C124.5 57.1864 74.6721 10.1047 7.22218 48.4117L2.77757 40.5858C75.8845 -0.934082 133.5 49.8962 133.5 95.1161H124.5Z" fill="#4A52EC"/>
</svg>
