<svg width="30" height="45" viewBox="0 0 30 45" fill="none" xmlns="http://www.w3.org/2000/svg">
<path d="M9.87985 19.4435H14.1046C15.7476 19.4435 17.107 19.1599 18.1827 18.5926C19.278 18.0254 20.0897 17.2431 20.6178 16.2455C21.1459 15.248 21.41 14.1038 21.41 12.8129C21.41 11.4633 21.1655 10.3093 20.6765 9.35094C20.2071 8.37298 19.4834 7.61995 18.5054 7.09185C17.547 6.56376 16.3246 6.29971 14.8381 6.29971C13.5863 6.29971 12.4519 6.55398 11.4348 7.06251C10.4373 7.55149 9.64514 8.25562 9.05836 9.1749C8.47159 10.0746 8.1782 11.1504 8.1782 12.4022H1.07822C1.07822 10.1333 1.67478 8.11871 2.86789 6.35838C4.06099 4.59806 5.68441 3.21914 7.73812 2.22162C9.81139 1.20454 12.1389 0.696006 14.7207 0.696006C17.4786 0.696006 19.8844 1.15565 21.9381 2.07493C24.0113 2.97465 25.625 4.32423 26.779 6.12367C27.933 7.92312 28.51 10.1529 28.51 12.8129C28.51 14.0256 28.2263 15.2578 27.6591 16.5096C27.0919 17.7614 26.2509 18.9056 25.136 19.9422C24.0211 20.9593 22.6324 21.7906 20.9699 22.436C19.3074 23.0619 17.3808 23.3749 15.1902 23.3749H9.87985V19.4435ZM9.87985 24.9592V21.0864H15.1902C17.6937 21.0864 19.8257 21.3798 21.586 21.9666C23.3659 22.5534 24.8133 23.3651 25.9281 24.4017C27.043 25.4188 27.8547 26.5826 28.3633 27.893C28.8914 29.2035 29.1554 30.5922 29.1554 32.0591C29.1554 34.0542 28.7936 35.834 28.0699 37.3988C27.3657 38.944 26.3584 40.2544 25.048 41.3302C23.7375 42.4059 22.2021 43.2176 20.4418 43.7653C18.701 44.3129 16.8038 44.5868 14.7501 44.5868C12.9115 44.5868 11.1512 44.3325 9.4691 43.824C7.78702 43.3154 6.28096 42.5624 4.95094 41.5649C3.62091 40.5478 2.56472 39.2862 1.78235 37.7802C1.01954 36.2546 0.638141 34.4942 0.638141 32.4992H7.70878C7.70878 33.7706 8.00217 34.8952 8.58894 35.8732C9.19528 36.8316 10.0363 37.5846 11.1121 38.1323C12.2074 38.6799 13.4592 38.9537 14.8674 38.9537C16.3539 38.9537 17.6351 38.6897 18.7108 38.1616C19.7866 37.6335 20.608 36.8511 21.1753 35.8145C21.762 34.7779 22.0554 33.5261 22.0554 32.0591C22.0554 30.3966 21.7327 29.047 21.0872 28.0104C20.4418 26.9737 19.5225 26.2109 18.3294 25.722C17.1363 25.2134 15.728 24.9592 14.1046 24.9592H9.87985Z" fill="#EB242A"/>
</svg>
